<?xml version="1.0" encoding="UTF-8"?>
<svg width="44px" height="45px" viewBox="0 0 44 45" version="1.1" xmlns="http://www.w3.org/2000/svg" xmlns:xlink="http://www.w3.org/1999/xlink">
    <title>Specialists</title>
    <g id="Symbols" stroke="none" stroke-width="1" fill="none" fill-rule="evenodd">
        <g id="footer_menu_round" transform="translate(-60, -14)">
            <g id="footer_menu" transform="translate(-19, -0)">
                <g id="Specialists" transform="translate(79, 14)">
                    <circle id="Oval" fill="#DDDDDD" transform="translate(22, 22.9167) rotate(-90) translate(-22, -22.9167)" cx="22" cy="22.9166667" r="22"></circle>
                    <circle id="Oval" fill="#FFFFFF" transform="translate(22, 22) rotate(-90) translate(-22, -22)" cx="22" cy="22" r="22"></circle>
                    <g id="Discover" transform="translate(11, 14.6667)" fill="#000000" fill-rule="nonzero">
                        <path d="M0.182110637,13.1834312 C0.544631204,13.9084724 1.38296002,14.2709929 2.67443954,14.2709929 C3.40590221,14.2594876 4.13445613,14.1760075 4.84956295,14.0217601 L5.82383697,13.7951847 C8.1428672,15.704289 11.3544386,16.1060547 14.0722978,14.8270621 C16.790157,13.5480695 18.5276169,10.817348 18.5347144,7.81359533 C18.5347144,7.65499258 18.5347144,7.49638984 18.5120568,7.33778709 L19.282413,6.68071856 C21.2083036,4.93608833 21.9106872,3.50866359 21.3669063,2.42110189 C20.6192076,0.948362082 17.968276,1.24291004 15.7478375,1.80934843 C13.426818,-0.13114192 10.1906354,-0.548327868 7.45336851,0.740083713 C4.71610164,2.02849529 2.97530883,4.78830734 2.99164504,7.81359533 C2.99164504,7.97219808 2.99164504,8.13080083 3.01430257,8.28940358 C1.22435727,9.73948585 -0.58824557,11.7106914 0.182110637,13.1834312 Z M10.7631797,14.2256779 C9.59637631,14.2238787 8.45234109,13.9026085 7.45517953,13.2967189 C9.18205219,12.7117619 10.8632957,11.999884 12.4851524,11.1669106 C14.1072006,10.3536565 15.6672276,9.42218412 17.1526047,8.38003372 C16.8488068,11.6846531 14.0817206,14.2162427 10.7631797,14.2256779 Z M20.1433994,3.05551288 C20.3246597,3.44069098 19.7355638,4.46028008 18.2628239,5.77441714 C17.9844815,4.75001848 17.4986275,3.79373455 16.8353992,2.96488274 C18.9652075,2.53438957 19.9847966,2.76096492 20.1433994,3.05551288 Z M10.7631797,1.40151279 C13.8895187,1.41158015 16.5562502,3.66731006 17.0846321,6.74869116 C15.4424163,7.97946796 13.6903949,9.05646813 11.8507414,9.9660612 C10.0298688,10.9090248 8.12618133,11.6826349 6.1637,12.2771298 C4.37139604,10.4286486 3.85858593,7.68737178 4.8614815,5.31599309 C5.86437707,2.94461439 8.18844983,1.40310266 10.7631797,1.40151279 Z M3.26353546,9.85277353 C3.54187794,10.8771722 4.02773187,11.8334561 4.6909602,12.6623079 C2.76506968,13.0701436 1.58687784,12.9568559 1.38296002,12.5716778 C1.1790422,12.1864997 1.65485044,11.3028558 3.26353546,9.85277353 Z" id="Shape"></path>
                    </g>
                </g>
            </g>
        </g>
    </g>
</svg>